<mxfile host="65bd71144e">
    <diagram id="b69bM7nBP1ZPQVHOWER3" name="Page-1">
        <mxGraphModel dx="2806" dy="1358" grid="1" gridSize="10" guides="1" tooltips="1" connect="1" arrows="1" fold="1" page="1" pageScale="1" pageWidth="850" pageHeight="1100" math="0" shadow="0">
            <root>
                <mxCell id="0"/>
                <mxCell id="1" parent="0"/>
                <mxCell id="19" value="" style="edgeStyle=none;sketch=1;hachureGap=4;jiggle=2;curveFitting=1;html=1;fontFamily=Helvetica;fontSize=15;entryX=0.564;entryY=-0.024;entryDx=0;entryDy=0;entryPerimeter=0;" parent="1" source="start" target="input" edge="1">
                    <mxGeometry relative="1" as="geometry">
                        <mxPoint x="-449.9999999999998" y="780" as="targetPoint"/>
                    </mxGeometry>
                </mxCell>
                <mxCell id="start" value="Start" style="ellipse;whiteSpace=wrap;html=1;fontSize=15;fontFamily=Helvetica;" parent="1" vertex="1">
                    <mxGeometry x="-140" y="460" width="120" height="60" as="geometry"/>
                </mxCell>
                <mxCell id="input" value="Input Processing:&#10;• North vehicles&#10;• East vehicles&#10;• South vehicles&#10;• West vehicles" style="shape=parallelogram;perimeter=parallelogramPerimeter;whiteSpace=wrap;html=1;align=center;fontSize=15;fontFamily=Helvetica;" parent="1" vertex="1">
                    <mxGeometry x="-230" y="580" width="260" height="110" as="geometry"/>
                </mxCell>
                <mxCell id="calcMetrics" value="Calculate Traffic Metrics:&lt;br style=&quot;font-size: 15px;&quot;&gt;• Total Vehicles&lt;br style=&quot;font-size: 15px;&quot;&gt;• Average Density&lt;br style=&quot;font-size: 15px;&quot;&gt;" style="rounded=1;whiteSpace=wrap;html=1;align=center;fontSize=15;fontFamily=Helvetica;" parent="1" vertex="1">
                    <mxGeometry x="-210" y="720" width="220" height="80" as="geometry"/>
                </mxCell>
                <mxCell id="decHigh" value="Is Avg Density &amp;gt; 8?" style="rhombus;whiteSpace=wrap;html=1;rounded=1;fontSize=15;fontFamily=Helvetica;" parent="1" vertex="1">
                    <mxGeometry x="-220" y="830" width="240" height="80" as="geometry"/>
                </mxCell>
                <mxCell id="highAlgorithm" value="&lt;font style=&quot;font-size: 15px;&quot;&gt;High-Density Algorithm:&lt;br style=&quot;font-size: 15px;&quot;&gt;&lt;/font&gt;&lt;br style=&quot;font-size: 15px;&quot;&gt;• Determine lane with highest count&lt;br style=&quot;font-size: 15px;&quot;&gt;&lt;br style=&quot;font-size: 15px;&quot;&gt;• &lt;font style=&quot;font-size: 15px;&quot;&gt;Set prioritized lane timing = 20 sec&lt;/font&gt;&lt;br style=&quot;font-size: 15px;&quot;&gt;&lt;br style=&quot;font-size: 15px;&quot;&gt;• First Signal = lane with max vehicles" style="rounded=1;whiteSpace=wrap;html=1;align=center;fontSize=15;fontFamily=Helvetica;" parent="1" vertex="1">
                    <mxGeometry x="-20" y="910" width="240" height="210" as="geometry"/>
                </mxCell>
                <mxCell id="lowAlgorithm" value="&lt;font style=&quot;font-size: 15px;&quot;&gt;Low-Density Algorithm&lt;/font&gt;:&lt;br style=&quot;font-size: 15px;&quot;&gt;&lt;br style=&quot;font-size: 15px;&quot;&gt;• Determine lane with lowest count&lt;br style=&quot;font-size: 15px;&quot;&gt;&lt;br style=&quot;font-size: 15px;&quot;&gt;• &lt;font style=&quot;font-size: 15px;&quot;&gt;Set prioritized lane timing =15 seconds&lt;br&gt;&lt;/font&gt;&lt;br style=&quot;font-size: 15px;&quot;&gt;• First Signal = lane with min vehicles" style="rounded=1;whiteSpace=wrap;html=1;align=center;fontSize=15;fontFamily=Helvetica;" parent="1" vertex="1">
                    <mxGeometry x="-425" y="910" width="240" height="200" as="geometry"/>
                </mxCell>
                <mxCell id="displayInfo" value="Display Information:&#10;• Algorithm Used&#10;• Average Density&#10;• Vehicle Counts&#10;• Phase Times&#10;• First Signal" style="rounded=1;whiteSpace=wrap;html=1;align=center;fontSize=15;fontFamily=Helvetica;" parent="1" vertex="1">
                    <mxGeometry x="-240" y="1230" width="260" height="150" as="geometry"/>
                </mxCell>
                <mxCell id="edge2" style="edgeStyle=orthogonalEdgeStyle;rounded=0;html=1;fontSize=15;fontFamily=Helvetica;" parent="1" source="input" target="calcMetrics" edge="1">
                    <mxGeometry relative="1" as="geometry"/>
                </mxCell>
                <mxCell id="edge3" style="edgeStyle=orthogonalEdgeStyle;rounded=0;html=1;fontSize=15;fontFamily=Helvetica;" parent="1" source="calcMetrics" target="decHigh" edge="1">
                    <mxGeometry relative="1" as="geometry"/>
                </mxCell>
                <mxCell id="edge4" value="Yes" style="edgeStyle=orthogonalEdgeStyle;rounded=0;html=1;exitX=1;exitY=0.5;fontSize=15;fontFamily=Helvetica;" parent="1" source="decHigh" target="highAlgorithm" edge="1">
                    <mxGeometry relative="1" as="geometry"/>
                </mxCell>
                <mxCell id="edge5" value="No" style="edgeStyle=orthogonalEdgeStyle;rounded=0;html=1;exitX=0;exitY=0.5;entryX=0.5;entryY=0;entryDx=0;entryDy=0;fontSize=15;fontFamily=Helvetica;" parent="1" source="decHigh" target="lowAlgorithm" edge="1">
                    <mxGeometry relative="1" as="geometry">
                        <mxPoint x="-225" y="860" as="targetPoint"/>
                    </mxGeometry>
                </mxCell>
                <mxCell id="edge8" style="edgeStyle=orthogonalEdgeStyle;rounded=0;html=1;fontSize=15;fontFamily=Helvetica;entryX=0.708;entryY=-0.008;entryDx=0;entryDy=0;entryPerimeter=0;" parent="1" source="highAlgorithm" target="displayInfo" edge="1">
                    <mxGeometry relative="1" as="geometry">
                        <mxPoint x="20" y="1220.0909090909086" as="targetPoint"/>
                    </mxGeometry>
                </mxCell>
                <mxCell id="edge9" style="edgeStyle=orthogonalEdgeStyle;rounded=0;html=1;fontSize=15;fontFamily=Helvetica;entryX=0.25;entryY=0;entryDx=0;entryDy=0;" parent="1" source="lowAlgorithm" target="displayInfo" edge="1">
                    <mxGeometry relative="1" as="geometry">
                        <mxPoint x="-240" y="1220.0909090909086" as="targetPoint"/>
                    </mxGeometry>
                </mxCell>
                <mxCell id="edge12" style="edgeStyle=orthogonalEdgeStyle;rounded=0;html=1;fontSize=15;fontFamily=Helvetica;entryX=0.5;entryY=0;entryDx=0;entryDy=0;" parent="1" source="displayInfo" edge="1">
                    <mxGeometry relative="1" as="geometry">
                        <mxPoint x="-110" y="1480" as="targetPoint"/>
                    </mxGeometry>
                </mxCell>
                <mxCell id="11" value="if any error occurs" style="edgeStyle=none;sketch=1;hachureGap=4;jiggle=2;curveFitting=1;html=1;fontFamily=Helvetica;fontSize=15;entryX=0;entryY=0.5;entryDx=0;entryDy=0;" parent="1" target="9" edge="1">
                    <mxGeometry relative="1" as="geometry">
                        <mxPoint x="-100" y="810" as="sourcePoint"/>
                        <mxPoint x="-90" y="810" as="targetPoint"/>
                        <Array as="points">
                            <mxPoint x="230" y="810"/>
                        </Array>
                    </mxGeometry>
                </mxCell>
                <mxCell id="13" value="" style="edgeStyle=none;sketch=1;hachureGap=4;jiggle=2;curveFitting=1;html=1;fontFamily=Helvetica;fontSize=15;shape=link;" parent="1" source="9" target="12" edge="1">
                    <mxGeometry relative="1" as="geometry"/>
                </mxCell>
                <mxCell id="9" value="&lt;span style=&quot;font-size: 15px;&quot;&gt;Default Algorithm:&amp;nbsp;&lt;br style=&quot;font-size: 15px;&quot;&gt;gets dynamic value for each lane&lt;br style=&quot;font-size: 15px;&quot;&gt;&lt;/span&gt;" style="rounded=1;whiteSpace=wrap;html=1;align=center;fontSize=15;fontFamily=Helvetica;" parent="1" vertex="1">
                    <mxGeometry x="180" y="770" width="240" height="80" as="geometry"/>
                </mxCell>
                <mxCell id="12" value="if vehicles &amp;lt;5 : allot 10 seconds&lt;br&gt;if vehicles &amp;lt;10 : allot 15 seconds&lt;br&gt;if vehicles &amp;lt;15 : allot 20 seconds&lt;br&gt;if vehicles &amp;gt;15 : allot 25seconds" style="whiteSpace=wrap;html=1;fontSize=15;rounded=1;sketch=1;hachureGap=4;jiggle=2;curveFitting=1;fontFamily=Helvetica;" parent="1" vertex="1">
                    <mxGeometry x="460" y="750" width="260" height="120" as="geometry"/>
                </mxCell>
                <mxCell id="15" value="for other lanes use :&lt;br&gt;if vehicles &amp;lt;5 : allot 10 seconds&lt;br&gt;if vehicles &amp;lt;10 : allot 15 seconds&lt;br&gt;if vehicles &amp;lt;15 : allot 20 seconds&lt;br&gt;if vehicles &amp;gt;15 : allot 25seconds" style="whiteSpace=wrap;html=1;fontSize=15;rounded=1;sketch=1;hachureGap=4;jiggle=2;curveFitting=1;fontFamily=Helvetica;" parent="1" vertex="1">
                    <mxGeometry x="-730" y="1080" width="260" height="120" as="geometry"/>
                </mxCell>
                <mxCell id="16" value="" style="edgeStyle=none;sketch=1;hachureGap=4;jiggle=2;curveFitting=1;html=1;fontFamily=Helvetica;fontSize=15;shape=link;entryX=1;entryY=0.5;entryDx=0;entryDy=0;exitX=0.008;exitY=0.454;exitDx=0;exitDy=0;exitPerimeter=0;" parent="1" source="lowAlgorithm" target="20" edge="1">
                    <mxGeometry relative="1" as="geometry">
                        <mxPoint x="-370" y="1440" as="sourcePoint"/>
                        <mxPoint x="-667.3845027043269" y="1280" as="targetPoint"/>
                    </mxGeometry>
                </mxCell>
                <mxCell id="20" value="Check for 0 Vehicles:&#10;• If a lane count is 0, set its time to 0" style="rounded=1;whiteSpace=wrap;html=1;align=center;fontSize=15;fontFamily=Helvetica;" parent="1" vertex="1">
                    <mxGeometry x="-730" y="970" width="260" height="60" as="geometry"/>
                </mxCell>
                <mxCell id="21" value="" style="edgeStyle=none;sketch=1;hachureGap=4;jiggle=2;curveFitting=1;html=1;fontFamily=Helvetica;fontSize=15;shape=link;exitX=0.5;exitY=1;exitDx=0;exitDy=0;entryX=0.5;entryY=0;entryDx=0;entryDy=0;" parent="1" source="20" target="15" edge="1">
                    <mxGeometry relative="1" as="geometry">
                        <mxPoint x="-488.0799999999999" y="1090.7999999999997" as="sourcePoint"/>
                        <mxPoint x="-860" y="1330" as="targetPoint"/>
                    </mxGeometry>
                </mxCell>
                <mxCell id="22" value="for other lanes use :&lt;br&gt;if vehicles &amp;lt;5 : allot 10 seconds&lt;br&gt;if vehicles &amp;lt;10 : allot 15 seconds&lt;br&gt;if vehicles &amp;lt;15 : allot 20 seconds&lt;br&gt;if vehicles &amp;gt;15 : allot 25seconds" style="whiteSpace=wrap;html=1;fontSize=15;rounded=1;sketch=1;hachureGap=4;jiggle=2;curveFitting=1;fontFamily=Helvetica;" parent="1" vertex="1">
                    <mxGeometry x="270" y="1080" width="260" height="120" as="geometry"/>
                </mxCell>
                <mxCell id="23" value="" style="edgeStyle=none;sketch=1;hachureGap=4;jiggle=2;curveFitting=1;html=1;fontFamily=Helvetica;fontSize=15;shape=link;entryX=0;entryY=0.5;entryDx=0;entryDy=0;exitX=1;exitY=0.5;exitDx=0;exitDy=0;" parent="1" source="highAlgorithm" target="24" edge="1">
                    <mxGeometry relative="1" as="geometry">
                        <mxPoint x="501.9200000000001" y="1400.8000000000002" as="sourcePoint"/>
                        <mxPoint x="332.6154972956731" y="1600" as="targetPoint"/>
                    </mxGeometry>
                </mxCell>
                <mxCell id="24" value="Check for 0 Vehicles:&#10;• If a lane count is 0, set its time to 0" style="rounded=1;whiteSpace=wrap;html=1;align=center;fontSize=15;fontFamily=Helvetica;" parent="1" vertex="1">
                    <mxGeometry x="270" y="985" width="260" height="60" as="geometry"/>
                </mxCell>
                <mxCell id="25" value="" style="edgeStyle=none;sketch=1;hachureGap=4;jiggle=2;curveFitting=1;html=1;fontFamily=Helvetica;fontSize=15;shape=link;entryX=0.5;entryY=0;entryDx=0;entryDy=0;exitX=0.5;exitY=1;exitDx=0;exitDy=0;" parent="1" source="24" target="22" edge="1">
                    <mxGeometry relative="1" as="geometry">
                        <mxPoint x="300" y="1105" as="sourcePoint"/>
                        <mxPoint x="350" y="1100" as="targetPoint"/>
                    </mxGeometry>
                </mxCell>
                <mxCell id="31" value="no" style="edgeStyle=none;sketch=1;hachureGap=4;jiggle=2;curveFitting=1;html=1;fontFamily=Helvetica;fontSize=15;" parent="1" source="27" target="30" edge="1">
                    <mxGeometry relative="1" as="geometry"/>
                </mxCell>
                <mxCell id="27" value="is the cycle completed&amp;nbsp;" style="rhombus;whiteSpace=wrap;html=1;rounded=1;fontSize=15;fontFamily=Helvetica;" parent="1" vertex="1">
                    <mxGeometry x="-230" y="1420" width="240" height="80" as="geometry"/>
                </mxCell>
                <mxCell id="30" value="contine the sane code till cycle completes" style="whiteSpace=wrap;html=1;fontSize=15;rounded=1;sketch=1;hachureGap=4;jiggle=2;curveFitting=1;fontFamily=Architects Daughter;fontSource=https%3A%2F%2Ffonts.googleapis.com%2Fcss%3Ffamily%3DArchitects%2BDaughter;" parent="1" vertex="1">
                    <mxGeometry x="50" y="1420" width="170" height="80" as="geometry"/>
                </mxCell>
                <mxCell id="32" value="" style="edgeStyle=none;sketch=1;hachureGap=4;jiggle=2;curveFitting=1;html=1;fontFamily=Helvetica;fontSize=15;endArrow=none;" parent="1" source="27" target="end" edge="1">
                    <mxGeometry relative="1" as="geometry">
                        <mxPoint x="-110" y="1560" as="sourcePoint"/>
                        <mxPoint x="-110" y="1650" as="targetPoint"/>
                    </mxGeometry>
                </mxCell>
                <mxCell id="end" value="End&lt;br&gt;move on to next cycle&amp;nbsp;" style="ellipse;whiteSpace=wrap;html=1;fontSize=15;fontFamily=Helvetica;" parent="1" vertex="1">
                    <mxGeometry x="-185" y="1530" width="150" height="80" as="geometry"/>
                </mxCell>
            </root>
        </mxGraphModel>
    </diagram>
</mxfile>